<?xml version="1.0" standalone="no"?>
<!DOCTYPE svg PUBLIC "-//W3C//DTD SVG 1.1//EN" "http://www.w3.org/Graphics/SVG/1.1/DTD/svg11.dtd" >
<svg xmlns="http://www.w3.org/2000/svg">
<metadata>Generated by IcoMoon</metadata>
<defs>
<font id="icomoon" horiz-adv-x="1024">
<font-face units-per-em="1024" ascent="960" descent="-64" />
<missing-glyph horiz-adv-x="1024" />
<glyph unicode="&#x20;" horiz-adv-x="512" d="" />
<glyph unicode="&#xe900;" d="M-73.143 957.611h1755.429v-1019.563h-1755.429v1019.563z" />
<glyph unicode="&#xe901;" d="M438.743 702.976c141.257 0 256.114-114.005 256.114-254.976 0-140.629-114.514-254.976-256.114-254.976-141.257 0-256.114 114.005-256.114 254.976 0.343 140.629 114.857 254.976 256.114 254.976z" />
<glyph unicode="&#xe902;" d="M502.857 651.776c113.143 0 204.686-91.477 204.686-203.776 0-112.64-91.543-203.776-204.686-203.776s-204.686 91.477-204.686 203.776c0 112.64 91.543 203.776 204.686 203.776z" />
<glyph unicode="&#xe903;" d="M655.086 448l121.714-39.253 19.886 60.416z" />
<glyph unicode="&#xe904;" d="M655.086 448l121.714 39.253 19.886-60.416z" />
<glyph unicode="&#xe905;" d="M743.543 569.173v-127.317h64.114z" />
<glyph unicode="&#xe906;" d="M743.543 569.173l75.429-103.083-51.771-37.547z" />
<glyph unicode="&#xe907;" d="M743.543 326.827l75.429 103.083-51.771 37.547z" />
<glyph unicode="&#xe908;" d="M743.543 326.827v127.317h64.114z" />
<glyph unicode="&#xe909;" d="M886.857 522.752l-121.714-39.253 19.543-60.416z" />
<glyph unicode="&#xe90a;" d="M886.857 522.752l-75.429-103.083-51.771 37.547z" />
<glyph unicode="&#xe90b;" d="M886.857 373.248l-75.429 103.083-51.771-37.547z" />
<glyph unicode="&#xe90c;" d="M886.857 373.248l-121.714 39.253 19.543 60.416z" />
<glyph unicode="&#xe90d;" d="M1024 448c0-282.77-229.23-512-512-512s-512 229.23-512 512c0 282.77 229.23 512 512 512s512-229.23 512-512z" />
<glyph unicode="&#xe90e;" d="M629.029 477.257c0 16.159-10.649 29.257-23.786 29.257h-244.999c-13.137 0-23.786-13.098-23.786-29.257s10.649-29.257 23.786-29.257h244.999c13.137 0 23.786 13.098 23.786 29.257z" />
<glyph unicode="&#xe90f;" d="M364.809 389.486c-15.659 0-28.351-13.098-28.351-29.257s12.693-29.257 28.351-29.257h177.354c15.659 0 28.351 13.098 28.351 29.257s-12.693 29.257-28.351 29.257h-177.354z" />
<glyph unicode="&#xe910;" d="M410.013 201.143h-86.786c-28.617 0-51.899 20.507-51.899 45.714v402.286c0 25.207 23.282 45.714 51.899 45.714h319.033c28.617 0 51.899-20.507 51.899-45.714v-140.571c0-12.624 11.618-22.857 25.949-22.857s25.949 10.233 25.949 22.857v140.571c0 50.414-46.564 91.429-103.798 91.429h-319.033c-57.234 0-103.798-41.015-103.798-91.429v-402.286c0-50.414 46.564-91.429 103.798-91.429h86.786c14.332 0 25.949 10.233 25.949 22.857s-11.618 22.857-25.949 22.857z" />
<glyph unicode="&#xe911;" d="M783.356 426.606c-28.286 28.521-74.309 28.522-102.577 0.020l-132.763-133.572c-2.82-2.837-4.899-6.331-6.058-10.174l-28.913-95.979c-2.563-8.51-0.33-17.75 5.829-24.115 4.614-4.768 10.882-7.356 17.311-7.356 2.151 0 4.323 0.29 6.454 0.886l97.605 27.262c4.017 1.122 7.678 3.271 10.628 6.241l132.485 133.337c28.286 28.521 28.286 74.928-0.001 103.451zM621.205 228.862l-49.104-13.716 14.37 47.705 89.581 90.127 34.206-34.49-89.053-89.626zM749.176 357.652l-4.685-4.715-34.2 34.484 4.67 4.699c9.429 9.507 24.77 9.507 34.198 0s9.429-24.976 0.017-34.468z" />
<glyph unicode="&#xe912;" d="M605.242 623.543h-244.999c-13.137 0-23.786-13.098-23.786-29.257s10.649-29.257 23.786-29.257h244.999c13.137 0 23.786 13.098 23.786 29.257s-10.649 29.257-23.786 29.257z" />
<glyph unicode="&#xe913;" d="M1024 448c0-282.77-229.23-512-512-512s-512 229.23-512 512c0 282.77 229.23 512 512 512s512-229.23 512-512z" />
<glyph unicode="&#xe914;" d="M666.807 354.605c-19.225 18.98-43.226 18.98-62.328 0-14.572-14.449-29.144-28.898-43.471-43.592-3.918-4.041-7.225-4.898-12-2.204-9.429 5.143-19.47 9.306-28.531 14.939-42.246 26.572-77.635 60.735-108.983 99.184-15.551 19.102-29.389 39.551-39.062 62.572-1.959 4.653-1.592 7.714 2.204 11.51 14.572 14.082 28.776 28.531 43.103 42.98 19.96 20.082 19.96 43.592-0.122 63.796-11.388 11.51-22.776 22.776-34.164 34.286-11.755 11.755-23.388 23.633-35.266 35.265-19.225 18.735-43.226 18.735-62.328-0.122-14.694-14.449-28.776-29.265-43.716-43.47-13.837-13.102-20.817-29.143-22.286-47.878-2.327-30.49 5.143-59.266 15.674-87.306 21.552-58.041 54.369-109.592 94.166-156.858 53.757-63.919 117.922-114.49 192.985-150.98 33.797-16.408 68.818-29.021 106.901-31.102 26.205-1.469 48.981 5.143 67.227 25.592 12.49 13.959 26.572 26.694 39.797 40.041 19.592 19.837 19.715 43.837 0.245 63.429-23.266 23.388-46.654 46.653-70.043 69.919z" />
<glyph unicode="&#xe915;" d="M650.9 448l47.282 8.249c-7.432 44.385-27.934 84.58-59.071 116.527-32.931 33.649-74.575 54.859-120.448 61.406l-6.663-48.575c35.494-5.106 67.784-21.472 93.283-47.527 24.090-24.615 39.85-55.776 45.616-90.080z" />
<glyph unicode="&#xe916;" d="M710.328 642.374c-52.412 53.769-118.726 87.721-191.931 98.197l-6.398-46.827c63.239-9.088 120.572-38.496 165.848-84.818 42.938-44.050 71.113-99.712 81.325-160.927l45.399 7.952c-11.934 70.934-44.538 135.305-94.243 186.423z" />
<glyph unicode="&#xe917;" d="M512 960c-282.784 0-512-229.216-512-512 0-282.752 229.216-512 512-512s512 229.248 512 512c0 282.784-229.216 512-512 512z" />
<glyph unicode="&#xe918;" d="M156.96 535.456l13.952-71.552c3.552-18.24 7.136-37.568 10.016-57.6h0.704c3.584 20.032 8.608 40.064 12.864 57.248l18.624 71.904h42.944l17.504-69.76c4.672-19.68 9.312-39.36 12.896-59.392h0.704c2.496 20.032 6.080 39.712 10.016 59.744l15.040 69.408h53.312l-53.696-174.944h-51.136l-16.48 61.568c-4.288 17.184-7.52 32.928-11.072 54.368h-0.704c-3.232-21.824-6.784-37.92-11.456-54.368l-17.536-61.536h-51.136l-50.816 174.944 55.456-0.032z" />
<glyph unicode="&#xe919;" d="M435.456 535.456l13.952-71.552c3.552-18.24 7.136-37.568 10.016-57.6h0.704c3.584 20.032 8.608 40.064 12.864 57.248l18.624 71.904h42.944l17.504-69.76c4.672-19.68 9.312-39.36 12.896-59.392h0.704c2.496 20.032 6.080 39.712 10.016 59.744l15.040 69.408h53.312l-53.696-174.944h-51.136l-16.448 61.536c-4.288 17.184-7.52 32.928-11.072 54.368h-0.736c-3.232-21.824-6.784-37.92-11.456-54.368l-17.536-61.536h-51.136l-50.816 174.944h55.456z" />
<glyph unicode="&#xe91a;" d="M713.92 535.456l13.952-71.552c3.552-18.24 7.136-37.568 10.016-57.6h0.704c3.584 20.032 8.608 40.064 12.864 57.248l18.624 71.904h42.944l17.504-69.76c4.672-19.68 9.312-39.36 12.896-59.392h0.704c2.496 20.032 6.080 39.712 10.016 59.744l15.040 69.408h53.312l-53.696-174.944h-51.136l-16.448 61.536c-4.288 17.184-7.52 32.928-11.072 54.368h-0.736c-3.232-21.824-6.784-37.92-11.456-54.368l-17.536-61.536h-51.136l-50.816 174.944h55.456z" />
<glyph unicode="&#xe91b;" glyph-name="channel-facebook" d="M439.723 169.472h115.098v278.562h76.783l10.172 95.983h-86.955l0.119 48.060c0 25.020 2.389 38.451 38.298 38.451h47.991v96h-76.8c-92.245 0-124.706-46.575-124.706-124.877v-57.634h-57.498v-96h57.498v-278.545zM512-64c-282.761 0-512 229.239-512 512 0 282.778 229.239 512 512 512s512-229.222 512-512c0-282.761-229.239-512-512-512z" />
</font>
</defs>
</svg>
