<?xml version="1.0" encoding="UTF-8"?>
<svg width="22px" height="22px" viewBox="0 0 22 22" version="1.1" xmlns="http://www.w3.org/2000/svg" xmlns:xlink="http://www.w3.org/1999/xlink">
    <!-- Generator: Sketch 49.2 (51160) - http://www.bohemiancoding.com/sketch -->
    <title>check</title>
    <desc>Created with Sketch.</desc>
    <defs></defs>
    <g id="login-signup-password" stroke="none" stroke-width="1" fill="none" fill-rule="evenodd">
        <g id="sign-up" transform="translate(-216.000000, -373.000000)" fill-rule="nonzero">
            <g id="check" transform="translate(216.000000, 373.000000)">
                <path d="M9.88035775,15 C9.63723609,15 9.42110497,14.8911457 9.28604888,14.7279164 L5.2069618,10.2653074 C4.90980736,9.93879659 4.9368496,9.42176478 5.26099458,9.12244154 C5.58513955,8.8231183 6.0984251,8.85035791 6.39557954,9.17686868 L9.90734828,13.0135916 L19.6323179,3.24488308 C19.9564629,2.91837231 20.4697485,2.91837231 20.7669029,3.24488308 C21.0640573,3.57139385 21.0910479,4.08842566 20.7669029,4.3877489 L10.4476761,14.7551039 C10.3125683,14.9183853 10.0964889,15 9.88035775,15 Z" id="Shape" fill="#6C5CE7"></path>
                <path d="M11.0000265,22 C4.94722136,22 0,17.0527786 0,11.0000265 C0,4.94727426 4.94722136,0 11.0000265,0 C11.4698956,0 11.8291481,0.359305454 11.8291481,0.829121671 C11.8291481,1.29893789 11.4698427,1.65824334 11.0000265,1.65824334 C5.85929223,1.65824334 1.65829624,5.85923933 1.65829624,10.9999735 C1.65829624,16.1407078 5.85929223,20.3417038 11.0000265,20.3417038 C16.1407607,20.3417038 20.3417567,16.1407078 20.3417567,10.9999735 C20.3417567,10.5301044 20.7010621,10.1708519 21.1708783,10.1708519 C21.6406945,10.1708519 22,10.5301573 22,10.9999735 C22,17.0527786 17.0527786,22 11.0000265,22 Z" id="Shape" fill="#FF7675"></path>
            </g>
        </g>
    </g>
</svg>