<?xml version="1.0" encoding="UTF-8"?>
<svg width="157px" height="37px" viewBox="0 0 157 37" version="1.1" xmlns="http://www.w3.org/2000/svg" xmlns:xlink="http://www.w3.org/1999/xlink">
    <!-- Generator: Sketch 49.2 (51160) - http://www.bohemiancoding.com/sketch -->
    <title>Group 2</title>
    <desc>Created with Sketch.</desc>
    <defs></defs>
    <g id="landing-page" stroke="none" stroke-width="1" fill="none" fill-rule="evenodd">
        <g id="home" transform="translate(-155.000000, -23.000000)">
            <g id="Group-2" transform="translate(154.000000, 22.000000)">
                <path d="M126.728516,8.54785156 L126.728516,32 L123.681641,32 L123.681641,8.54785156 L126.728516,8.54785156 Z M135.810547,28.5869141 C136.318362,29.0361351 137.241204,29.2607422 138.579102,29.2607422 C140.024421,29.2607422 141.25976,28.7529348 142.285156,27.7373047 C142.41211,27.6005853 142.670896,27.2978539 143.061523,26.8291016 L146.09375,27.9130859 C145.351559,28.9384817 144.814455,29.6171858 144.482422,29.9492188 C142.851554,31.5800863 140.883801,32.3955078 138.579102,32.3955078 C136.284168,32.3955078 134.321297,31.5800863 132.69043,29.9492188 C131.059562,28.3183512 130.244141,26.3505975 130.244141,24.0458984 C130.244141,21.7411994 131.059562,19.7734457 132.69043,18.1425781 C134.321297,16.5117106 136.284168,15.6962891 138.579102,15.6962891 C140.551768,15.6962891 142.280266,16.2919862 143.764648,17.4833984 C144.00879,17.6884776 144.248046,17.908202 144.482422,18.1425781 C144.580079,18.2402349 144.858396,18.547849 145.317383,19.0654297 L143.793945,20.6035156 L135.810547,28.5869141 Z M140.878906,19.2119141 C140.537108,18.9482409 139.770514,18.8164062 138.579102,18.8164062 C137.143548,18.8164062 135.915532,19.3266551 134.89502,20.347168 C133.874507,21.3676809 133.364258,22.6005787 133.364258,24.0458984 C133.364258,25.227545 133.496092,25.9941389 133.759766,26.3457031 L140.878906,19.2119141 Z M151.44043,16.9267578 L151.44043,11.2724609 L154.472656,11.2724609 L154.472656,16.9267578 L157.182617,16.9267578 L157.182617,19.9589844 L154.472656,19.9589844 L154.472656,32 L151.44043,32 L151.44043,19.9589844 L148.730469,19.9589844 L148.730469,16.9267578 L151.44043,16.9267578 Z" id="let" fill="#FF7675"></path>
                <path d="M49.4682617,32 L49.4682617,8.5625 L52.5004883,8.5625 L52.5004883,28.953125 L60.8793945,28.953125 L60.8793945,32 L49.4682617,32 Z M69.0825195,28.5869141 C69.5903346,29.0361351 70.5131769,29.2607422 71.8510742,29.2607422 C73.2963939,29.2607422 74.5317332,28.7529348 75.5571289,27.7373047 C75.6840827,27.6005853 75.9428691,27.2978539 76.3334961,26.8291016 L79.3657227,27.9130859 C78.6235314,28.9384817 78.0864274,29.6171858 77.7543945,29.9492188 C76.123527,31.5800863 74.1557732,32.3955078 71.8510742,32.3955078 C69.5561409,32.3955078 67.5932699,31.5800863 65.9624023,29.9492188 C64.3315348,28.3183512 63.5161133,26.3505975 63.5161133,24.0458984 C63.5161133,21.7411994 64.3315348,19.7734457 65.9624023,18.1425781 C67.5932699,16.5117106 69.5561409,15.6962891 71.8510742,15.6962891 C73.8237403,15.6962891 75.5522387,16.2919862 77.0366211,17.4833984 C77.2807629,17.6884776 77.5200184,17.908202 77.7543945,18.1425781 C77.8520513,18.2402349 78.1303688,18.547849 78.5893555,19.0654297 L77.065918,20.6035156 L69.0825195,28.5869141 Z M74.1508789,19.2119141 C73.8090803,18.9482409 73.0424864,18.8164062 71.8510742,18.8164062 C70.4155202,18.8164062 69.1875051,19.3266551 68.1669922,20.347168 C67.1464793,21.3676809 66.6362305,22.6005787 66.6362305,24.0458984 C66.6362305,25.227545 66.7680651,25.9941389 67.0317383,26.3457031 L74.1508789,19.2119141 Z M95.9477539,25.1738281 L95.9477539,22.9472656 C95.7719718,21.9999953 95.3032265,21.1406289 94.5415039,20.3691406 C93.5161082,19.3535105 92.2856517,18.8457031 90.8500977,18.8457031 C89.4047779,18.8457031 88.1718801,19.3535105 87.1513672,20.3691406 C86.1308543,21.3847707 85.6206055,22.6152271 85.6206055,24.0605469 C85.6206055,25.4961009 86.1308543,26.724116 87.1513672,27.7446289 C88.1718801,28.7651418 89.4047779,29.2753906 90.8500977,29.2753906 C92.2856517,29.2753906 93.5161082,28.7675832 94.5415039,27.7519531 C95.3032265,26.9804649 95.7719718,26.1210985 95.9477539,25.1738281 Z M95.9477539,17.9814453 L95.9477539,16.9267578 L98.9946289,16.9267578 L98.9946289,32.0146484 L95.9477539,32.0146484 L95.9477539,30.125 C94.4829028,31.6386794 92.7837011,32.3955078 90.8500977,32.3955078 C88.5453986,32.3955078 86.5800863,31.5825277 84.9541016,29.956543 C83.3281169,28.3305583 82.5151367,26.3652459 82.5151367,24.0605469 C82.5151367,21.7558479 83.3281169,19.7905355 84.9541016,18.1645508 C86.5800863,16.5385661 88.5453986,15.7255859 90.8500977,15.7255859 C92.7837011,15.7255859 94.4829028,16.4775315 95.9477539,17.9814453 Z M116.484863,25.1738281 L116.484863,22.9326172 C116.309081,21.9853468 115.835453,21.1259804 115.063965,20.3544922 C114.048335,19.3290964 112.817878,18.8164062 111.372559,18.8164062 C109.927239,18.8164062 108.694341,19.3290964 107.673828,20.3544922 C106.653315,21.3798879 106.143066,22.6103444 106.143066,24.0458984 C106.143066,25.4912182 106.653315,26.7216746 107.673828,27.7373047 C108.694341,28.7529348 109.927239,29.2607422 111.372559,29.2607422 C112.817878,29.2607422 114.048335,28.7529348 115.063965,27.7373047 C115.835453,26.9658165 116.309081,26.1113328 116.484863,25.1738281 Z M116.484863,17.9667969 L116.484863,8.5625 L119.531738,8.5625 L119.531738,32 L116.484863,32 L116.484863,30.125 C115.020012,31.6386794 113.315928,32.3955078 111.372559,32.3955078 C109.06786,32.3955078 107.102547,31.5800863 105.476562,29.9492188 C103.850578,28.3183512 103.037598,26.3505975 103.037598,24.0458984 C103.037598,21.7411994 103.850578,19.7734457 105.476562,18.1425781 C107.102547,16.5117106 109.06786,15.6962891 111.372559,15.6962891 C113.315928,15.6962891 115.020012,16.4531174 116.484863,17.9667969 Z" id="Lead" fill="#6C5CE7"></path>
                <g id="Group-Copy-5">
                    <path d="M11.7555561,1.10524334 L11.7555561,1.10524334 C14.7397227,1.10524334 17.2347831,3.37396893 17.5177093,6.3446932 L19.6958273,29.2149322 C20.113474,33.6002228 16.8970631,37.4937729 12.5117724,37.9114196 C12.2604111,37.9353588 12.0080548,37.9473486 11.7555561,37.9473486 L11.7555561,37.9473486 C7.35042245,37.9473486 3.77935601,34.3762822 3.77935601,29.9711485 C3.77935601,29.7186498 3.79134585,29.4662935 3.81528502,29.2149322 L5.99340302,6.3446932 C6.27632914,3.37396893 8.77138962,1.10524334 11.7555561,1.10524334 Z" id="Rectangle" fill="#FF7675" transform="translate(11.755832, 19.526296) rotate(10.000000) translate(-11.755832, -19.526296) "></path>
                    <path d="M20.033247,8.67376573 L20.033247,8.67376573 C22.9179413,8.67376573 25.3298331,10.8668671 25.6033283,13.7385673 L27.7980795,36.7834546 C28.2157262,41.1687452 24.9993153,45.0622953 20.6140247,45.479942 C20.3626634,45.5038812 20.1103071,45.515871 19.8578084,45.515871 L19.8578084,45.515871 C15.4942228,45.515871 11.9568378,41.978486 11.9568378,37.6149004 C11.9568378,37.3399338 11.9711917,37.0651547 11.9998409,36.7916848 L14.4154295,13.7337938 C14.7167281,10.8577621 17.1414761,8.67376573 20.033247,8.67376573 Z" id="Rectangle-Copy" fill="#6C5CE7" transform="translate(19.895699, 27.094818) rotate(74.000000) translate(-19.895699, -27.094818) "></path>
                </g>
            </g>
        </g>
    </g>
</svg>