<?xml version="1.0" encoding="UTF-8"?>
<svg width="20px" height="20px" viewBox="0 0 20 20" version="1.1" xmlns="http://www.w3.org/2000/svg" xmlns:xlink="http://www.w3.org/1999/xlink">
    <!-- Generator: Sketch 49.2 (51160) - http://www.bohemiancoding.com/sketch -->
    <title>turkey</title>
    <desc>Created with Sketch.</desc>
    <defs>
        <circle id="path-1" cx="10" cy="10" r="10"></circle>
    </defs>
    <g id="login-signup-password" stroke="none" stroke-width="1" fill="none" fill-rule="evenodd">
        <g id="login-dropdown" transform="translate(-1121.000000, -179.000000)">
            <g id="turkey" transform="translate(1121.000000, 179.000000)">
                <mask id="mask-2" fill="white">
                    <use xlink:href="#path-1"></use>
                </mask>
                <use id="Mask" fill="#D8D8D8" xlink:href="#path-1"></use>
                <g mask="url(#mask-2)">
                    <g transform="translate(-1.433022, -0.685358)">
                        <path d="M31.3502804,20.9174455 L0.550031153,20.9174455 C0.246292835,20.9174455 0,20.6711526 0,20.3674143 L0,0.567227414 C0,0.263489097 0.246292835,0.0171962617 0.550031153,0.0171962617 L31.3503427,0.0171962617 C31.654081,0.0171962617 31.9003738,0.263489097 31.9003738,0.567227414 L31.9003738,20.3674143 C31.9003115,20.671215 31.6540187,20.9174455 31.3502804,20.9174455 Z" id="Shape" fill="#FF4B55" fill-rule="nonzero"></path>
                        <g id="Group" stroke-width="1" fill="none" fill-rule="evenodd" transform="translate(4.112150, 4.922118)">
                            <path d="M11.6806231,3.66062305 L12.5427414,4.78841121 L13.8889097,4.33781931 C13.9641745,4.31264798 14.0282243,4.39775701 13.9831153,4.46305296 L13.176947,5.63146417 L14.0214953,6.77252336 C14.0687227,6.83632399 14.0075389,6.9234891 13.9315265,6.90080997 L12.5711526,6.49514019 L11.7469782,7.65090343 C11.7009346,7.71551402 11.5990031,7.68429907 11.5970717,7.60498442 L11.5624922,6.1858567 L10.2085981,5.75912773 C10.1328972,5.7352648 10.1310903,5.62878505 10.2059813,5.60242991 L11.5449844,5.13102804 L11.5323988,3.71152648 C11.5316511,3.63214953 11.6324611,3.59757009 11.6806231,3.66062305 Z" id="Shape" fill="#F5F5F5" fill-rule="nonzero"></path>
                            <path d="M6.91314642,9.94778816 C4.4835514,9.94778816 2.51271028,7.97688474 2.51271028,5.54510903 C2.51271028,3.11781931 4.48361371,1.14249221 6.91314642,1.14249221 C7.81707165,1.14249221 8.65065421,1.42049844 9.34535826,1.89102804 C9.4517134,1.96305296 9.57314642,1.82330218 9.48411215,1.73071651 C8.4458567,0.651277259 6.9764486,-0.00722741433 5.34716511,0.048411215 C2.54803738,0.143925234 0.230778816,2.38816199 0.0519003115,5.18317757 C-0.152897196,8.38461059 2.38205607,11.0452336 5.53819315,11.0452336 C7.0928972,11.0452336 8.49015576,10.3952648 9.48791277,9.35601246 C9.57607477,9.26423676 9.45439252,9.12654206 9.34903427,9.19794393 C8.65358255,9.66953271 7.81862928,9.94778816 6.91314642,9.94778816 Z" id="Shape" fill="#F5F5F5" fill-rule="nonzero"></path>
                        </g>
                    </g>
                </g>
            </g>
        </g>
    </g>
</svg>